<svg version="1" xmlns="http://www.w3.org/2000/svg" width="533.333" height="533.333" viewBox="0 0 400.000000 400.000000"><path d="M185.6 56.7c-.3 1-1.5 6.1-2.6 11.3-2.9 12.8-8.8 24.8-15.5 31.7-2.9 3-5.9 5.3-6.7 5.1-.7-.3-2-1.8-2.8-3.4-.8-1.6-1.6-3.1-1.8-3.4-.4-.5-8.4 8.3-14.4 15.9-2.4 2.9-7.2 11.3-10.8 18.5-5.2 10.4-7 13.2-8.7 13.4-1.8.3-2.3-.2-2.3-1.8 0-2.8-1.6-1.7-3.9 2.8-3.8 7.6-5.4 18.3-4.8 33.6.9 26.3 9.7 48.6 26.8 68 5.3 6 17.8 15.4 25.4 19.1 3 1.5 5.5 2.9 5.5 3 0 .2-1.7 5.2-3.7 11.2-3.1 9-3.7 12.3-3.8 19.9-.2 7.7-.6 10-3 14.8-4.6 9.5-2.3 15.6 7.9 20.5 8.6 4.2 16.8 5.4 31.1 4.7 12.5-.7 36.9-4.1 41.1-5.6 2.8-1.1 3.2-5.3.9-8.4-1.9-2.5-4-1.5-4 2 0 2.6-.5 3.1-5 4.6-12.2 4-47.7 4.8-57.7 1.3-6.5-2.3-10.8-7.3-10.8-12.6 0-2.2.5-4.9 1.1-6.1 1.1-2 1.1-2 3.7.5 5.6 5.4 9.1 6.1 30.8 6.5 16.4.3 20.7.1 23.7-1.2 4.8-1.9 4.9-4.9.5-7.6-1.8-1.1-4.2-2-5.3-2-1.5 0-1-.9 2.7-4.8 2.6-2.6 5.1-5.8 5.6-7.2 1.4-3.8-1-9.9-5.4-13.7-3.1-2.7-4.6-3.3-8.5-3.3-4.9 0-5.9-.9-5.9-5.5 0-2 .7-2.4 4.8-2.9 33.9-4.8 61.9-29.9 73.6-65.9 6.9-21.1 7.3-58.9.9-74.9-1.6-3.9-3.3-5-3.3-2.1 0 3.4-1.8-.3-4-8.2-2.6-9.2-7.8-20.9-10.7-24.4l-2-2.5-3.2 2.7c-3.8 3.1-7.1 3.5-9.4.9-.9-1-3.7-6.3-6.3-11.7-2.5-5.5-6.2-12.4-8.1-15.4-3.8-6-9.4-13.1-10.4-13.1-.3 0-1.6 2.4-2.9 5.2-1.3 2.9-3.5 6.8-4.8 8.6l-2.4 3.3-8.9-8.5c-12-11.5-21.1-16.7-22.3-12.9zm8.7 122.7c2.6 1.4 6.3 4.7 8.4 7.1 3.7 4.5 3.7 4.5 5.8 2.5 3.9-3.7 11.6-6.3 18.5-6.3 11.3 0 19.9 5.3 24.9 15.5 5.3 10.6 3.8 22.3-4.1 31.3-4.7 5.3-10 8.3-16.2 9.1-4.3.6-4.5.8-5.2 4.8-1.4 8.9-9 18.9-16.8 22.1-13.9 5.8-29.4.1-36.4-13.5-3-5.9-3.3-7.1-3.1-13.8.3-7.2.3-7.3-2.6-8.8-13.3-6.8-18.8-24.1-12.2-37.6 3.2-6.5 9-12 15.1-14.2 6.6-2.5 18.2-1.6 23.9 1.8z"/><path d="M178.7 201.1c-2.1 1.2-2.2 4.2-.3 5.8 1.2 1 1.9.8 3.5-.8 1.2-1.2 2.1-2.5 2.1-3.1 0-1.7-3.4-2.9-5.3-1.9zM224.2 208.2c-1.6 1.6-1.5 3.4.4 5.2 1.4 1.5 1.7 1.4 3.5-.8 2.3-2.9 2.4-4.2.3-5-2.2-.8-2.8-.8-4.2.6zM193 232.4c0 .8.7 1.7 1.6 2 2.1.8 2.6.3 1.8-1.8-.8-2-3.4-2.1-3.4-.2zM206.5 235.9c-.3.5-.1 1.2.4 1.5 1.2.8 4.1-.3 4.1-1.5s-3.7-1.2-4.5 0z"/></svg>